<?xml version="1.0" encoding="UTF-8"?>
<svg id="Layer_2" data-name="Layer 2" xmlns="http://www.w3.org/2000/svg" viewBox="0 0 433.72 129.63">
  <defs>
    <style>
      .cls-1 {
        fill: #e2e2e2;
      }
    </style>
  </defs>
  <g id="Layer_1-2" data-name="Layer 1">
    <g>
      <path class="cls-1" d="M12.69,61.88c1.21,3.59,2.94,5.39,5.19,5.42,1.68.02,2.98-.88,3.89-2.7.91-1.82,1.37-3.93,1.37-6.34,0-2.29-.43-4.34-1.29-6.15-.86-1.81-2.89-3.52-6.03-5.16-5.15-2.69-8.85-6.32-11.05-10.66-2.21-4.35-3.33-9.83-3.33-16.12,0-4.14.57-7.9,1.71-11.3,1.14-3.4,2.85-5.92,5.14-7.7.49-.38,1.03-.71,1.59-1C5.94.1,3.97.07.02,0c0,17.91,0,35.82,0,53.73,4.48-.61,6.72-.91,11.19-1.5.24,4.21.73,7.44,1.48,9.65Z"/>
      <path class="cls-1" d="M141.96,60.65c1.42,3.92,3.35,5.9,5.8,5.96,2.52.06,4.46-1.8,5.84-5.57,1.38-3.77,2.07-10.65,2.06-20.23,0-8.06-.72-13.7-2.16-17.22-1.44-3.52-3.38-5.23-5.84-5.28-2.36-.05-4.25,1.6-5.68,5.11-1.43,3.51-2.15,9.46-2.15,18.2,0,8.67.7,15.11,2.12,19.03Z"/>
      <path class="cls-1" d="M137.53,81.89c-2.8-3.17-5.06-8.19-6.81-15.07-2.12-8.37-2.61-17.26-2.59-25.58.02-10.11.46-21.24,5.19-30.65,1.93-3.84,4.48-6.37,7.39-7.82C102.15,1.95,63.58,1.15,25.01.44c1.48.82,2.76,1.92,3.83,3.35,2.55,3.42,4.06,8.97,4.54,17.32-4.44.47-6.66.71-11.11,1.2-.29-3.65-.91-6.22-1.85-7.82-.94-1.6-2.25-2.4-3.92-2.43-1.37-.02-2.41.54-3.1,1.71-.7,1.17-1.04,2.61-1.05,4.34,0,1.26.31,2.43.86,3.46.56,1.05,1.89,2.09,3.95,3.06,5.13,2.41,8.84,4.97,11.06,7.51,2.22,2.55,3.84,5.72,4.85,9.54,1.01,3.83,1.51,8.15,1.5,12.95,0,5.64-.69,10.87-2.05,15.61-1.36,4.74-3.25,8.29-5.67,10.68-.41.41-.85.76-1.29,1.1,1.25.01,1.87.02,3.12.03-.01,7.65-.02,15.3-.03,22.95-2.24-7.68-4.35-15.41-6.4-23.14-1.97-.02-2.96-.03-4.93-.05-.01,13.26-.02,26.52-.04,39.79,1.98,0,2.97.01,4.96.03.01-7.62.02-11.87.03-20.78,2.55,8.93,3.82,13.19,6.36,20.82,1.99.01,2.98.02,4.97.04.02-13.2.04-26.39.06-39.59,4.59.05,6.89.08,11.48.15-.02,13.18-.05,26.37-.08,39.55,2.12.02,3.18.03,5.29.06.01-5.65.02-8.72.03-15.13,2.64.03,3.97.05,6.61.09,0-3.17.01-4.79.02-8.1-2.64-.04-3.97-.06-6.61-.09,0-2.86,0-4.31.01-7.26,3.1.04,4.64.07,7.74.11,0-3.57.01-5.39.02-9.05,1.22.02,1.83.03,3.05.05-.03,13.17-.05,26.34-.08,39.51,2.11.03,3.17.04,5.28.08.03-13.17.06-26.34.08-39.51,1.51.03,2.27.04,3.78.06-.03,13.17-.05,26.33-.08,39.5,5.4.08,8.1.13,13.5.23,0-3.4.01-5.19.02-8.88-3.29-.06-4.93-.09-8.23-.14.02-10.2.04-20.41.06-30.61,4.22.07,6.34.11,10.56.19-.02,13.16-.05,26.32-.08,39.48,1.73.03,2.59.05,4.32.08.02-9.83.04-19.66.06-29.49,1,9.86,2.05,19.72,3.26,29.56,1.56.03,2.34.05,3.91.08,1.25-9.79,2.34-19.6,3.38-29.42-.02,9.83-.03,19.66-.05,29.49,1.73.04,2.59.05,4.32.09.02-13.16.04-26.32.06-39.48,6.39.13,9.58.2,15.97.35-1.99,13.14-4.02,26.27-6.44,39.34,2.15.05,3.23.07,5.38.12.34-2.27.5-3.45.84-5.85,2.39.05,3.59.08,5.98.14.34,2.42.51,3.6.85,5.89,2.21.05,3.31.08,5.52.13-2.42-13.16-4.38-26.4-6.35-39.64,3.23.07,4.85.11,8.08.19,0,13.16-.02,26.33-.03,39.49,2.12.05,3.18.08,5.29.13,0-5.65,0-8.71,0-15.11,2.64.06,3.96.1,6.6.16,0-3.16,0-4.79,0-8.09-2.64-.07-3.96-.1-6.6-.16,0-2.86,0-4.31,0-7.25,3.09.07,4.64.11,7.73.19,0-3.62,0-5.46,0-9.18-3.34-.08-5.02-.12-8.36-.2-.79-.6-1.54-1.27-2.24-2.06ZM95.68,108.15c-.93-8.36-1.77-16.73-2.61-25.09,2.12.04,3.18.06,5.3.11-.87,8.33-1.73,16.66-2.68,24.99ZM122.2,109.12c.75-5.58,1.13-8.5,1.88-14.5.75,6.03,1.12,8.98,1.87,14.59-1.5-.03-2.25-.05-3.74-.09Z"/>
      <path class="cls-1" d="M279.33,36.56c.53.01,1.59-.4,3.1-1.09.75-.34,1.4-1.19,1.89-2.59.48-1.39.72-2.98.71-4.76-.01-2.63-.41-4.61-1.2-5.99-.78-1.38-2.24-2.08-4.38-2.12-2.06-.04-3.09-.06-5.14-.1.03,6.33.05,9.68.09,16.55,1.98.04,2.96.06,4.94.1Z"/>
      <path class="cls-1" d="M0,53.73c0,.16.02.3.02.45v-.46s-.01,0-.02,0Z"/>
      <path class="cls-1" d="M.02,81.8c0,13.25,0,26.5,0,39.74,5.75,0,8.63,0,14.38.03,0-3.15,0-4.79,0-8.18-3.64-.02-5.46-.02-9.1-.03,0-2.96,0-4.48,0-7.6,3.28.01,4.93.02,8.21.04,0-3.22,0-4.87,0-8.24-3.29-.02-4.93-.03-8.21-.05,0-2.62,0-3.95,0-6.64,3.54.02,5.32.03,8.86.06,0-3.61,0-5.45,0-9.15-2.17-.02-3.26-.03-5.44-.04-1.89-1.41-3.4-3.38-4.51-5.92C1.43,69.38.11,61.15.02,54.19c0,9.16,0,18.32,0,27.48v.13Z"/>
      <path class="cls-1" d="M433.72,94.12l-8.94-.24c-.49-1.46-1.1-2.5-1.83-3.1-.58-.48-1.35-.79-2.28-.95,2.63.01,3.94.02,6.57.03V25.86c-4.78-.04-7.17-.07-11.94-.12.03,21.31.05,42.62.08,63.92-2-.01-3-.02-5-.03,0,1.29,0,2.57,0,3.86l-3.18-.08c0-1.12,0-2.31,0-3.8-1.44-.01-2.17-.02-3.61-.03-.05-21.32-.09-42.65-.15-63.97-4.83-.06-7.25-.08-12.07-.15-.03-7.64-.04-11.29-.07-17.91-34.74-.48-69.47-1.07-104.21-1.73,1.24.31,2.3.72,3.18,1.26,1.92,1.18,3.48,3.34,4.67,6.66,1.19,3.32,1.81,7.48,1.84,12.62.03,4.48-.4,8.48-1.28,11.88-.88,3.4-2.1,6.19-3.66,8.33-.99,1.36-2.36,2.48-4.1,3.36,1.4,1.1,2.42,2.21,3.07,3.3.43.73,1.07,2.28,1.9,4.67.83,2.39,1.39,4.24,1.67,5.54,1.84,8.16,3.67,16.33,5.54,24.48-.38,0-.57-.01-.95-.02,0,.87,0,1.74.01,2.62l-3.02-.08c.3-.81.63-1.66.97-2.58-2.8-.06-4.2-.09-7.01-.16-.3.91-.58,1.76-.85,2.56l-4.65-.12c0-.76,0-1.57-.01-2.43.91.02,1.36.03,2.27.05-2.07-8.67-4.11-17.34-6.15-26.02-.81-3.52-1.53-5.82-2.16-6.86-.83-1.38-1.81-2.08-2.88-2.1-.41,0-.62-.01-1.03-.02.06,11.57.11,23.15.17,34.72,1.81.04,2.71.06,4.51.11,0,.8,0,1.61.01,2.41l-10.35-.28c0-.77,0-1.58-.01-2.51-2.38-.06-3.57-.09-5.95-.15-.12-27.24-.24-54.48-.39-81.72-35.87-.73-71.73-1.5-107.6-2.27,2.93,1.55,5.47,4.14,7.37,7.97,4.64,9.37,5.08,20.34,5.13,30.39.03,8.15-.35,16.85-2.22,25.09-1.49,6.56-3.64,11.6-6.46,15.14-.9,1.13-1.88,2.05-2.93,2.81,1.26.03,1.89.05,3.15.08,0,.75,0,1.5,0,2.26l-8.52-.23-.83,34.18,11.52.31c.4.79.82,1.44,1.27,1.93.66.73,1.48,1.21,2.46,1.47.98.26,1.89.4,2.72.43,1.43.04,2.66-.31,3.69-1.06.65-.48,1.29-1.3,1.89-2.46l5.68.15c0,1.03,0,2.05,0,3.08,2.11.06,3.16.09,5.27.15,0-1.18,0-2.15,0-3.09l5.54.15c.24.97.5,1.99.78,3.12,2.6.07,3.89.11,6.49.18-.31-1.04-.61-2.09-.91-3.13l2.64.07c0,1.04,0,2.07,0,3.11,5.75.16,8.63.24,14.38.41,0-1.2,0-2.19-.01-3.13l2.87.08c0,1.05,0,2.09,0,3.14,1.98.06,2.97.08,4.96.14,0-1.11,0-2.15-.01-3.15l5.35.14c.35,1.06.69,2.13,1.05,3.18,1.99.06,2.98.08,4.97.14,0-1.05,0-2.11-.01-3.16l3.57.09c0,1.06,0,2.11.01,3.17,3.13.09,4.7.13,7.83.22.94.03,1.99-.26,3.14-.87.71-.37,1.38-1.1,2.02-2.17l9.64.26c0,1.06.01,2.13.02,3.19,2.11.06,3.16.09,5.27.14,0-1.06-.01-2.13-.02-3.19l15.73.42c0,1.06.01,2.12.02,3.19,2.11.05,3.16.08,5.27.13,0-1.21-.01-2.22-.02-3.18l5.53.15c.25.99.51,2.04.81,3.19,2.6.06,3.89.1,6.49.16-.32-1.06-.63-2.12-.94-3.18l4.8.13c.41.81.84,1.48,1.31,1.99.66.73,1.49,1.22,2.47,1.48.98.26,1.89.4,2.72.42,1.43.03,2.66-.33,3.68-1.08.65-.48,1.28-1.32,1.87-2.48l5.7.15c0,1.02.01,2.05.02,3.07,1.98.04,2.97.06,4.96.1,0-1.08-.01-2.08-.02-3.04l5.41.14c.33,1.01.66,2.02,1,3.03,1.99.04,2.98.06,4.97.1,0-.99-.01-1.98-.02-2.97l4.45.12s.02.04.02.06c1.13,2.38,3.15,3.53,6.05,3.58,1.65.03,3.02-.43,4.1-1.4.57-.51,1.06-1.15,1.49-1.93l8.77.23c0,.91,0,1.82.01,2.73,2.11.03,3.16.05,5.27.08,0-.89,0-1.78-.01-2.67l7.8.21c0,.85,0,1.71.01,2.56,1.98.02,2.97.04,4.96.06,0-.87,0-1.7-.01-2.49l5.61.15c.27.8.52,1.61.8,2.41,1.99.02,2.98.03,4.97.05,0-.77,0-1.54,0-2.31l3.49.09c0,.75,0,1.5,0,2.24,5.75.05,8.63.07,14.38.1,0-.72,0-1.36,0-1.96l2.91.08c0,.63,0,1.26,0,1.89,2.12,0,3.18.01,5.29.02,0-.62,0-1.21,0-1.77l5.1.14c.14.52.28,1.07.44,1.65,2.38,0,3.57,0,5.96,0-.13-.53-.26-1.02-.38-1.49l6.04.16.83-34.18ZM252.81,86.95c0,.87,0,1.63.01,2.35l-5.01-.13c-.22-.33-.44-.62-.68-.89-.69-.79-1.54-1.29-2.54-1.53,3.29.08,4.93.12,8.22.21ZM227.05,86.29c0,.77,0,1.55,0,2.32l-5.75-.15c-.21-.78-.43-1.56-.63-2.33,2.55.07,3.83.1,6.38.16ZM189.46,85.32c-.27.81-.53,1.56-.77,2.27l-4.69-.12c0-.72,0-1.48,0-2.29,2.19.06,3.28.08,5.47.14ZM164.16,84.67c2.33.06,3.49.09,5.82.15,0,.76,0,1.52,0,2.27l-5.82-.15c0-.76,0-1.51,0-2.27ZM175.23,87.23c0-.76,0-1.52,0-2.28,1.4.04,2.1.05,3.51.09,0,.76,0,1.52,0,2.28l-3.51-.09ZM195.58,87.78c.27-.72.56-1.47.87-2.28.82.02,1.23.03,2.06.05,0,.77,0,1.53,0,2.3l-2.93-.08ZM212.61,88.23c0-.7,0-1.45,0-2.31,1.25.03,1.87.05,3.12.08,0,.77,0,1.54,0,2.31l-3.12-.08ZM232.02,88.75c0-.78,0-1.55,0-2.33,1.43.04,2.14.05,3.57.09,0,.78,0,1.55,0,2.33l-3.57-.09ZM384.54,89.53c0,1.09,0,2.19.01,3.28l-5.54-.15c-.29-1.07-.59-2.14-.88-3.21,2.56.03,3.84.05,6.4.08ZM354.69,89.12c0,1.08.01,2.02.01,2.9l-3.75-.1c-.1-.22-.2-.44-.31-.63-.55-.98-1.21-1.73-1.99-2.26,2.41.04,3.62.06,6.03.1ZM330.19,88.69c0,.89.01,1.78.02,2.67l-5.68-.15c-.24-.88-.49-1.76-.73-2.65,2.56.05,3.83.07,6.39.12ZM304.23,88.16c2.33.05,3.5.08,5.83.12,0,.85,0,1.69.01,2.54l-5.83-.16c0-.84,0-1.67-.01-2.51ZM315.33,90.96c0-.86-.01-1.71-.01-2.57,1.41.03,2.12.04,3.53.07,0,.86.01,1.73.02,2.59l-3.53-.09ZM335.16,88.78c2.91.05,4.37.08,7.28.13-.36.23-.7.49-.99.82-.48.53-.9,1.17-1.27,1.9l-5-.13c0-.9-.01-1.81-.02-2.71ZM370.75,92.44c0-.93,0-1.92-.01-3.09.97.01,1.46.02,2.43.03,0,1.04.01,2.08.01,3.12l-2.43-.06ZM389.53,92.94c0-1.12,0-2.24-.01-3.36,1.4.01,2.1.02,3.5.04,0,1.14,0,2.28.01,3.41l-3.5-.09Z"/>
    </g>
  </g>
</svg>