<?xml version="1.0" encoding="UTF-8"?>
<svg id="Layer_2" data-name="Layer 2" xmlns="http://www.w3.org/2000/svg" viewBox="0 0 433.72 130.22">
  <g id="Layer_1-2" data-name="Layer 1">
    <g>
      <g>
        <path d="M262.47,5.34c-35.87-.73-71.73-1.5-107.6-2.27,2.93,1.55,5.47,4.14,7.37,7.97,4.64,9.37,5.08,20.34,5.13,30.39.03,8.15-.35,16.85-2.22,25.09-1.49,6.56-3.64,11.6-6.46,15.14-.9,1.13-1.88,2.05-2.93,2.81,1.26.03,1.89.05,3.15.08,0,8.19,0,16.38,0,24.58,0,1.92.17,4.1.49,6.49.2,1.49.58,2.91,1.12,4.26.55,1.36,1.15,2.39,1.81,3.11.66.73,1.48,1.21,2.46,1.47.98.26,1.89.4,2.72.43,1.43.04,2.66-.31,3.69-1.06.73-.53,1.44-1.48,2.11-2.87.67-1.39,1.16-3.05,1.47-5.01.31-1.96.47-4.09.46-6.4,0-8.2-.02-16.4-.03-24.6,1.4.04,2.1.05,3.51.09.02,13.19.03,26.38.05,39.57,2.11.06,3.16.09,5.27.15,0-3.38,0-5.15-.01-8.82,1.08-2.48,1.63-3.76,2.71-6.36,1.45,6.5,2.17,9.61,3.62,15.35,2.6.07,3.89.11,6.49.18-2.39-7.92-4.47-15.93-6.55-23.93,2.46-6.09,3.68-9.26,6.14-15.68.82.02,1.23.03,2.06.05.03,13.2.06,26.41.09,39.61,5.75.16,8.63.24,14.38.41-.01-3.14-.02-4.78-.03-8.18-3.64-.1-5.46-.15-9.09-.25,0-2.95-.01-4.47-.02-7.58,3.28.09,4.92.13,8.2.22,0-3.22-.01-4.87-.02-8.23-3.28-.09-4.92-.13-8.19-.22,0-2.62,0-3.95-.02-6.63,3.53.09,5.3.14,8.83.23,0-3.56-.01-5.37-.02-9.02,1.25.03,1.87.05,3.12.08.04,13.22.08,26.43.12,39.65,1.98.06,2.97.08,4.96.14-.03-7.62-.04-11.88-.07-20.79,2,7.03,4.13,14.05,6.46,20.97,1.99.06,2.98.08,4.97.14-.06-13.23-.11-26.46-.15-39.69,1.43.04,2.14.05,3.57.09.05,13.23.1,26.47.16,39.7,3.13.09,4.7.13,7.83.22.94.03,1.99-.26,3.14-.87.84-.44,1.63-1.35,2.36-2.77.73-1.42,1.3-3.21,1.7-5.43.4-2.22.6-5.4.58-9.71-.01-2.75-.16-5.41-.45-7.96-.29-2.55-.75-4.83-1.38-6.81-.63-1.98-1.42-3.52-2.37-4.61-.69-.79-1.54-1.29-2.54-1.53,3.29.08,4.93.12,8.22.21.02,4.24.03,6.34.05,10.45,2.15.05,3.22.08,5.37.14.04,9.77.09,19.53.15,29.3,2.11.06,3.16.09,5.27.14-.06-9.77-.11-19.54-.15-29.31,2.15.05,3.22.08,5.37.13-.02-4.17-.03-6.3-.05-10.59-2.38-.06-3.57-.09-5.95-.15-.12-27.24-.24-54.48-.39-81.72ZM246.05,107.77c.01,3.22-.11,5.46-.36,6.83-.26,1.37-.62,2.3-1.08,2.83-.46.53-1.24.77-2.35.74-.52-.01-.77-.02-1.29-.04-.03-7.3-.06-14.61-.09-21.91.53.01.79.02,1.31.03,1.36.04,2.34.89,2.94,2.54.6,1.65.9,4.7.92,8.96ZM170,109.96c0,2.16-.25,3.79-.77,4.91-.51,1.13-1.23,1.66-2.13,1.64-.91-.02-1.63-.61-2.15-1.78-.52-1.17-.77-2.8-.78-4.93,0-8.38,0-16.76-.01-25.14,2.33.06,3.49.09,5.82.15,0,8.38.01,16.76.02,25.14ZM184.01,101.03c0-6.16-.01-9.36-.02-15.85,2.19.06,3.28.08,5.47.14-2.18,6.44-3.26,9.61-5.44,15.71ZM227.13,109.28c-2.26-7.68-4.39-15.41-6.46-23.15,2.55.07,3.83.1,6.38.16.03,7.66.05,15.33.08,22.99Z"/>
        <path d="M12.69,61.88c1.21,3.59,2.94,5.39,5.19,5.42,1.68.02,2.98-.88,3.89-2.7.91-1.82,1.37-3.93,1.37-6.34,0-2.29-.43-4.34-1.29-6.15-.86-1.81-2.89-3.52-6.03-5.16-5.15-2.69-8.85-6.32-11.05-10.66-2.21-4.35-3.33-9.83-3.33-16.12,0-4.14.57-7.9,1.71-11.3,1.14-3.4,2.86-5.92,5.14-7.7.49-.38,1.03-.71,1.59-1C5.94.1,3.97.07.02,0c0,17.91,0,35.82,0,53.73,4.48-.61,6.72-.91,11.19-1.5.24,4.21.73,7.44,1.48,9.65Z"/>
        <path d="M153.51,23.59c-1.44-3.52-3.38-5.23-5.84-5.28-2.36-.05-4.25,1.6-5.68,5.11-1.43,3.51-2.15,9.46-2.15,18.2,0,8.67.7,15.11,2.12,19.03,1.42,3.92,3.35,5.91,5.8,5.96,2.52.06,4.46-1.8,5.84-5.57,1.38-3.77,2.07-10.65,2.06-20.23,0-8.06-.72-13.7-2.16-17.22Z"/>
        <path d="M137.53,81.89c-2.8-3.17-5.06-8.19-6.81-15.07-2.12-8.37-2.61-17.26-2.59-25.58.02-10.11.46-21.24,5.19-30.65,1.93-3.84,4.48-6.37,7.39-7.82C102.15,1.95,63.58,1.15,25.01.44c1.48.82,2.76,1.92,3.83,3.35,2.55,3.42,4.06,8.97,4.54,17.32-4.44.47-6.66.71-11.11,1.2-.29-3.65-.91-6.22-1.85-7.82-.94-1.6-2.25-2.4-3.92-2.43-1.37-.02-2.41.54-3.1,1.71-.7,1.17-1.04,2.61-1.05,4.34,0,1.26.31,2.43.86,3.46.56,1.05,1.89,2.09,3.95,3.06,5.13,2.41,8.84,4.97,11.06,7.51,2.22,2.54,3.84,5.72,4.85,9.54,1.01,3.83,1.51,8.15,1.5,12.95,0,5.64-.69,10.87-2.05,15.61-1.36,4.74-3.25,8.29-5.67,10.68-.41.41-.85.76-1.29,1.1,1.25.01,1.87.02,3.12.03-.01,7.65-.02,15.3-.03,22.95-2.24-7.68-4.35-15.41-6.4-23.14-1.97-.02-2.96-.03-4.93-.05-.01,13.26-.02,26.52-.04,39.79,1.98,0,2.97.01,4.96.03.01-7.62.02-11.87.03-20.78,2.55,8.93,3.82,13.19,6.36,20.82,1.99.01,2.98.02,4.97.04.02-13.2.04-26.39.06-39.59,4.59.05,6.89.08,11.48.15-.02,13.18-.05,26.37-.08,39.55,2.12.02,3.18.03,5.29.06.01-5.65.02-8.72.03-15.13,2.64.03,3.97.05,6.61.09,0-3.17.01-4.79.02-8.1-2.64-.04-3.97-.06-6.61-.09,0-2.86,0-4.31.01-7.26,3.1.04,4.64.07,7.74.11,0-3.57.01-5.39.02-9.05,1.22.02,1.83.03,3.05.05-.03,13.17-.05,26.34-.08,39.52,2.11.03,3.17.04,5.28.08.03-13.17.06-26.34.08-39.51,1.51.03,2.27.04,3.78.06-.03,13.17-.05,26.33-.08,39.5,5.4.08,8.1.13,13.5.23,0-3.4.01-5.19.02-8.88-3.29-.06-4.93-.09-8.23-.14.02-10.2.04-20.41.06-30.61,4.22.08,6.34.11,10.56.19-.02,13.16-.05,26.32-.08,39.48,1.73.03,2.59.05,4.32.08.02-9.83.04-19.66.06-29.49,1,9.86,2.05,19.72,3.26,29.56,1.56.03,2.34.05,3.91.08,1.25-9.79,2.34-19.6,3.38-29.42-.02,9.83-.03,19.66-.05,29.49,1.73.04,2.59.05,4.32.09.02-13.16.04-26.32.06-39.48,6.39.13,9.58.2,15.97.35-1.99,13.14-4.02,26.27-6.44,39.34,2.15.05,3.23.07,5.38.12.34-2.27.5-3.45.84-5.85,2.39.05,3.59.08,5.98.14.34,2.42.51,3.61.85,5.89,2.21.05,3.31.08,5.52.13-2.42-13.16-4.38-26.4-6.35-39.64,3.23.07,4.85.11,8.08.19,0,13.16-.02,26.33-.03,39.49,2.12.05,3.18.08,5.29.13,0-5.65,0-8.71,0-15.11,2.64.06,3.96.1,6.6.16,0-3.16,0-4.79,0-8.09-2.64-.07-3.96-.1-6.6-.16,0-2.86,0-4.31,0-7.25,3.09.07,4.64.11,7.73.19,0-3.62,0-5.46,0-9.18-3.34-.08-5.02-.12-8.36-.2-.79-.6-1.54-1.27-2.24-2.06ZM122.2,109.12c.75-5.58,1.13-8.5,1.88-14.5.75,6.03,1.12,8.98,1.87,14.59-1.5-.03-2.25-.05-3.74-.09ZM95.68,108.15c-.93-8.36-1.77-16.73-2.61-25.09,2.12.04,3.18.06,5.3.11-.87,8.33-1.73,16.66-2.68,24.99Z"/>
        <path d="M282.43,35.48c.75-.34,1.4-1.19,1.89-2.59.48-1.39.72-2.98.71-4.76-.01-2.63-.41-4.61-1.2-5.99-.78-1.38-2.24-2.08-4.38-2.12-2.06-.04-3.09-.06-5.14-.1.03,6.33.05,9.68.09,16.55,1.98.04,2.96.06,4.94.1.53.01,1.59-.4,3.1-1.09Z"/>
        <path d="M427.23,25.86c-4.78-.04-7.17-.07-11.94-.12.03,21.31.05,42.62.08,63.93-2-.01-3-.02-5-.03.02,13.32.05,26.63.07,39.95,2.12,0,3.18.01,5.29.02,0-5.66-.01-8.72-.02-15.13.19,0,.28,0,.47,0,.48,0,.92.31,1.29.92.28.46.6,1.47.96,3,1.13,4.7,1.7,6.96,2.83,11.22,2.38,0,3.57,0,5.96,0-1.02-4.03-1.53-6.17-2.56-10.6-.12-.56-.37-1.35-.74-2.4-.37-1.05-.65-1.74-.85-2.06-.29-.48-.75-.97-1.38-1.46.79-.42,1.4-.94,1.85-1.58.71-1,1.26-2.32,1.67-3.96.4-1.65.61-3.62.61-5.96,0-2.67-.27-4.98-.8-6.89-.53-1.91-1.23-3.23-2.09-3.94-.58-.48-1.35-.79-2.28-.95,2.63.01,3.94.02,6.57.03V25.86ZM420.19,105.03c-.22.69-.52,1.12-.86,1.29-.68.35-1.16.56-1.4.55-.89,0-1.34,0-2.23-.01,0-3.34,0-5.05-.01-8.5.93,0,1.39,0,2.32.01.97,0,1.62.38,1.97,1.11.35.73.53,1.78.53,3.13,0,.91-.11,1.72-.33,2.41Z"/>
        <path d="M0,53.73c0,.16.02.3.02.45v-.46s-.01,0-.02,0Z"/>
        <path d="M5.31,105.76c3.28.01,4.93.02,8.21.04,0-3.22,0-4.87,0-8.24-3.29-.02-4.93-.03-8.21-.05,0-2.62,0-3.95,0-6.64,3.54.02,5.32.03,8.86.06,0-3.61,0-5.45,0-9.15-2.17-.02-3.26-.03-5.44-.04-1.89-1.41-3.4-3.38-4.51-5.92C1.43,69.38.11,61.15.02,54.19c0,9.16,0,18.32,0,27.48v.13c0,13.25,0,26.5,0,39.74,5.75,0,8.63,0,14.38.03,0-3.15,0-4.79,0-8.18-3.64-.02-5.46-.02-9.1-.03,0-2.96,0-4.48,0-7.6Z"/>
        <path d="M296.94,87.87c-2.8-.06-4.2-.09-7.01-.16-2.17,6.53-3.26,9.75-5.43,15.95-.03-6.19-.05-9.41-.08-15.94.91.02,1.36.03,2.27.05-2.07-8.67-4.11-17.34-6.15-26.02-.81-3.52-1.53-5.82-2.16-6.86-.83-1.38-1.81-2.08-2.88-2.1-.41,0-.62-.01-1.03-.02.06,11.57.11,23.15.17,34.72,1.81.04,2.71.06,4.51.11.07,13.27.14,26.53.22,39.8,2.11.05,3.16.08,5.27.13-.02-3.4-.03-5.19-.06-8.87,1.07-2.5,1.61-3.79,2.68-6.4,1.48,6.54,2.21,9.66,3.69,15.43,2.6.06,3.89.1,6.49.16-2.43-7.96-4.54-16-6.65-24.05,2.45-6.18,3.68-9.4,6.13-15.92Z"/>
        <path d="M398.39,113.67c3.29.03,4.93.04,8.22.06,0-3.23-.01-4.89-.02-8.27-3.29-.02-4.93-.03-8.22-.06,0-2.63-.01-3.97-.02-6.67,3.55.03,5.32.05,8.87.07,0-3.63-.01-5.47-.02-9.19-1.44-.01-2.17-.02-3.61-.03-.05-21.32-.09-42.65-.15-63.97-4.83-.06-7.25-.08-12.07-.15-.03-7.64-.04-11.29-.07-17.91-34.74-.48-69.47-1.07-104.21-1.73,1.24.3,2.3.72,3.18,1.26,1.92,1.18,3.48,3.34,4.67,6.66,1.19,3.32,1.81,7.48,1.83,12.62.03,4.48-.4,8.48-1.28,11.88-.88,3.4-2.1,6.19-3.66,8.33-.99,1.36-2.36,2.48-4.1,3.36,1.4,1.1,2.42,2.21,3.07,3.3.43.73,1.07,2.28,1.9,4.67.83,2.39,1.39,4.24,1.67,5.54,1.84,8.16,3.67,16.33,5.54,24.48-.38,0-.57-.01-.95-.02.05,8.3.09,16.6.14,24.89.01,1.94.19,4.13.53,6.54.21,1.5.59,2.93,1.15,4.3.56,1.37,1.17,2.41,1.83,3.13.66.73,1.49,1.22,2.47,1.48.98.26,1.89.4,2.72.42,1.43.03,2.66-.33,3.68-1.08.73-.54,1.43-1.5,2.09-2.9.66-1.41,1.14-3.08,1.44-5.06.3-1.97.45-4.12.43-6.46-.05-8.26-.1-16.52-.14-24.78,1.41.03,2.12.04,3.53.07.07,13.29.15,26.58.24,39.87,1.98.04,2.97.06,4.96.1-.05-7.67-.08-11.95-.13-20.91,2.02,7.05,4.17,14.09,6.52,21.04,1.99.04,2.98.06,4.97.1-.09-13.29-.16-26.59-.24-39.88,2.91.05,4.37.08,7.28.13-.36.23-.7.49-.99.82-1.01,1.12-1.77,2.67-2.27,4.62-.5,1.96-.74,4.02-.73,6.19.02,3.29.53,5.95,1.54,8.02,1,2.07,2.66,3.73,4.97,4.96,1.41.75,2.32,1.52,2.71,2.33.39.8.59,1.71.6,2.7,0,1.05-.19,1.95-.59,2.72-.4.77-.98,1.14-1.73,1.13-1.01-.02-1.79-.78-2.34-2.32-.34-.95-.57-2.34-.69-4.2-2,.25-3.01.38-5.01.63.17,3.92.82,7,1.96,9.38,1.13,2.37,3.15,3.53,6.05,3.58,1.65.03,3.02-.43,4.1-1.4,1.08-.97,1.92-2.41,2.51-4.39.59-1.98.88-4.2.87-6.69-.01-2.11-.25-4.07-.71-5.85-.46-1.78-1.2-3.3-2.2-4.54-1-1.24-2.67-2.52-4.97-3.74-.92-.49-1.52-1.03-1.78-1.57-.25-.53-.39-1.14-.39-1.82,0-.92.15-1.71.45-2.35.31-.64.77-.96,1.38-.95.75.01,1.33.46,1.76,1.34.43.88.71,2.28.85,4.17,1.99-.25,2.98-.38,4.97-.64-.24-4.37-.94-7.65-2.09-9.73-.55-.98-1.21-1.73-1.99-2.26,2.41.04,3.62.06,6.03.1.02,4.26.03,6.36.05,10.49,2.15.03,3.23.05,5.38.08.05,9.8.1,19.6.16,29.4,2.11.03,3.16.05,5.27.08-.06-9.8-.11-19.6-.15-29.4,2.15.03,3.23.05,5.38.07-.02-4.13-.03-6.23-.05-10.49.97.01,1.46.02,2.43.03.06,13.29.12,26.59.19,39.88,1.98.02,2.97.04,4.96.06-.04-7.67-.06-11.95-.1-20.91,2.01,7.03,4.14,14.05,6.48,20.98,1.99.02,2.98.03,4.97.05-.05-13.29-.1-26.58-.14-39.86,1.4.01,2.1.02,3.5.04.04,13.29.08,26.57.13,39.86,5.75.05,8.63.07,14.38.1,0-3.16-.01-4.81-.02-8.22-3.64-.02-5.46-.03-9.11-.06,0-2.97-.01-4.5-.02-7.62ZM310.21,113.62c.01,2.18-.23,3.82-.74,4.96-.51,1.14-1.22,1.68-2.12,1.66-.92-.02-1.63-.61-2.16-1.79-.52-1.18-.79-2.82-.8-4.96-.05-8.44-.1-16.88-.14-25.33,2.33.05,3.5.08,5.83.12.05,8.44.09,16.89.15,25.33ZM330.32,111.79c-2.28-7.71-4.44-15.46-6.52-23.22,2.56.05,3.83.08,6.39.12.04,7.7.09,15.4.13,23.1ZM384.62,112.62c-2.27-7.69-4.41-15.43-6.49-23.17,2.56.03,3.84.05,6.4.08.03,7.7.06,15.4.09,23.1Z"/>
      </g>
      <polygon points="150.38 86.57 149.55 120.75 432.89 128.29 433.72 94.12 150.38 86.57"/>
    </g>
  </g>
</svg>